<mxfile host="app.diagrams.net" modified="2023-11-01T06:20:37.767Z" agent="Mozilla/5.0 (Windows NT 10.0; Win64; x64; rv:109.0) Gecko/20100101 Firefox/119.0" etag="iWLTjgMRFTIaTeLZAaz3" version="22.0.8" type="github">
  <diagram name="Page-1" id="ndvpF3qMSlvDqB6ifJz7">
    <mxGraphModel dx="1050" dy="558" grid="1" gridSize="10" guides="1" tooltips="1" connect="1" arrows="1" fold="1" page="1" pageScale="1" pageWidth="850" pageHeight="1100" math="0" shadow="0">
      <root>
        <mxCell id="0" />
        <mxCell id="1" parent="0" />
        <mxCell id="GUuomIrtt9QXx2b2EBxl-1" value="&lt;div&gt;Meter&lt;/div&gt;&lt;div&gt;&lt;br&gt;&lt;/div&gt;" style="ellipse;whiteSpace=wrap;html=1;" vertex="1" parent="1">
          <mxGeometry x="170" y="320" width="120" height="80" as="geometry" />
        </mxCell>
        <mxCell id="GUuomIrtt9QXx2b2EBxl-2" value="Node" style="ellipse;whiteSpace=wrap;html=1;aspect=fixed;" vertex="1" parent="1">
          <mxGeometry x="190" y="150" width="80" height="80" as="geometry" />
        </mxCell>
        <mxCell id="GUuomIrtt9QXx2b2EBxl-3" value="" style="endArrow=classic;startArrow=classic;html=1;rounded=0;exitX=0.45;exitY=-0.037;exitDx=0;exitDy=0;exitPerimeter=0;entryX=0.425;entryY=1.063;entryDx=0;entryDy=0;entryPerimeter=0;" edge="1" parent="1" source="GUuomIrtt9QXx2b2EBxl-1" target="GUuomIrtt9QXx2b2EBxl-2">
          <mxGeometry width="50" height="50" relative="1" as="geometry">
            <mxPoint x="190" y="280" as="sourcePoint" />
            <mxPoint x="240" y="230" as="targetPoint" />
          </mxGeometry>
        </mxCell>
        <mxCell id="GUuomIrtt9QXx2b2EBxl-4" value="&lt;div&gt;Meter&lt;/div&gt;&lt;div&gt;&lt;br&gt;&lt;/div&gt;" style="ellipse;whiteSpace=wrap;html=1;" vertex="1" parent="1">
          <mxGeometry x="340" y="320" width="100" height="60" as="geometry" />
        </mxCell>
        <mxCell id="GUuomIrtt9QXx2b2EBxl-5" value="" style="endArrow=classic;startArrow=classic;html=1;rounded=0;" edge="1" parent="1" source="GUuomIrtt9QXx2b2EBxl-4">
          <mxGeometry width="50" height="50" relative="1" as="geometry">
            <mxPoint x="234" y="327" as="sourcePoint" />
            <mxPoint x="250" y="220" as="targetPoint" />
            <Array as="points">
              <mxPoint x="290" y="260" />
            </Array>
          </mxGeometry>
        </mxCell>
      </root>
    </mxGraphModel>
  </diagram>
</mxfile>
